<svg xmlns="http://www.w3.org/2000/svg" viewBox="0 0 1200 620" role="img" aria-labelledby="title desc">
  <title id="title">Painted mandala coaster and color palette</title>
  <desc id="desc">A bright mandala coaster surrounded by paint pots and colorful brush strokes.</desc>
  <defs>
    <linearGradient id="bg" x1="0" x2="1" y1="0" y2="1">
      <stop stop-color="#f7e3a5"/>
      <stop offset="1" stop-color="#f2a77e"/>
    </linearGradient>
    <radialGradient id="coaster">
      <stop stop-color="#f7e3a5"/>
      <stop offset=".72" stop-color="#ef6e53"/>
      <stop offset="1" stop-color="#c7474d"/>
    </radialGradient>
  </defs>
  <rect width="1200" height="620" fill="url(#bg)"/>
  <path d="M0 85C180 185 230 20 390 105s230 80 370-5 260-80 440 20" fill="none" stroke="#fff3c7" stroke-width="28" opacity=".7"/>
  <g transform="translate(640 320)" stroke="#17324b" stroke-width="8">
    <circle r="190" fill="url(#coaster)"/>
    <circle r="145" fill="none" stroke="#f7e3a5"/>
    <circle r="105" fill="none" stroke="#0c6b79"/>
    <circle r="62" fill="#f3b646"/>
    <g fill="#0c6b79" stroke="none">
      <path d="M0-150l20 62-20 26-20-26zM106-106l-45 47-30-10 10-30zM150 0l-62 20-26-20 26-20zM106 106l-47-45 10-30 30 10zM0 150l-20-62 20-26 20 26zM-106 106l45-47 30 10-10 30zM-150 0l62-20 26 20-26 20zM-106-106l47 45-10 30-30-10z"/>
    </g>
    <g fill="#ef6e53" stroke="none">
      <circle cy="-105" r="16"/><circle cx="105" cy="0" r="16"/>
      <circle cx="105" cy="0" r="16"/><circle cx="0" cy="105" r="16"/>
      <circle cx="-105" cy="0" r="16"/>
    </g>
  </g>
  <g stroke="#17324b" stroke-width="8" stroke-linejoin="round">
    <path d="M115 480c-25-105 48-158 117-61 44 62 34 106 0 123-55 27-103-7-117-62z" fill="#0c6b79"/>
    <path d="M153 467c-13-50 27-86 56-39 18 29 15 56-3 65-27 14-46-1-53-26z" fill="#f3b646"/>
    <path d="M250 540c45-90 72-145 124-210" fill="none"/>
    <path d="M371 322l31-41 10 53z" fill="#ef6e53"/>
  </g>
  <g fill="#17324b">
    <circle cx="965" cy="455" r="11"/><circle cx="1010" cy="425" r="8"/><circle cx="1050" cy="475" r="14"/>
  </g>
</svg>